# xmcd CD database file
#
# Track frame offsets:
#	150
#	20540
#	49693
#	75451
#	94672
#	121064
#	139340
#	158608
#	185552
#	205362
#	229658
#	255973
#
# Disc length: 4440 seconds
#
# Revision: 0
# Processed by: cddbd v1.5.2PL0 Copyright (c) Steve Scherf et al.
# Submitted via: CDex 1.70beta2
#
DISCID=9111560c
DTITLE=Dzem - Kilka zdartych plyt
DYEAR=1995
DGENRE=Blues
TTITLE0=Nie daj sie farbowanym lisom
TTITLE1=Ja wiem - obojetnosc
TTITLE2=Dzikosc mego serca
TTITLE3=Kilka zdartych plyt
TTITLE4=Powiedz czy slyszysz
TTITLE5=Buty, piesci, pas
TTITLE6=kosmiczny pub
TTITLE7=W klatce
TTITLE8=Nie truj ojcze
TTITLE9=Wszysko wzielo w leb
TTITLE10=Zapal swieczke
TTITLE11=data
EXTD=YEAR: 1995
EXTT0=
EXTT1=
EXTT2=
EXTT3=
EXTT4=
EXTT5=
EXTT6=
EXTT7=
EXTT8=
EXTT9=
EXTT10=
EXTT11=
PLAYORDER=
